<svg enable-background="new 0 0 96 96" viewBox="0 0 96 96" xmlns="http://www.w3.org/2000/svg"><g fill="#37b0d1"><path d="m80.6 33.4c1.1-3.4 2.4-9.9-.8-17.4-9.6 0-17.5 7.4-17.8 7.6-4.5-1-9.2-1.4-14-1.4-4.9 0-9.8.6-14.3 1.7-6.4-6.3-14.1-7.9-17.4-7.9 0 0-2.1 3.7-2.1 10 0 4.2.9 6.4 1.6 7.5-4.8 5.1-7.8 11.9-7.8 20.6 0 22.4 14.1 29.8 40 29.8s40-7.5 40-29.8c0-9-2.8-15.8-7.4-20.7zm-33.1 46.6c-15.2 0-27.6-2.8-27.6-18 0-5.8 3-9 5.1-11.1 4.7-4.5 12.1-2.3 22.5-2.3 4.8 0 9.3-.6 13.4-.7 2.4 0 4.6.2 6.6.9 5.2 1.8 8.5 6.9 8.5 12.6 0 15.9-8 18.6-28.5 18.6z"/><ellipse cx="64" cy="62" rx="4" ry="6"/><ellipse cx="32" cy="62" rx="4" ry="6"/></g></svg>