<svg height="96" viewBox="0 0 24 24" width="96" xmlns="http://www.w3.org/2000/svg"><path d="m20.155 8.343c.285-.856.608-2.472-.192-4.343-2.388 0-4.378 1.84-4.449 1.906-1.114-.245-2.3-.362-3.511-.362-1.237 0-2.448.152-3.583.434-1.598-1.59-3.53-1.978-4.353-1.978 0 0-.529.933-.529 2.509 0 1.047.237 1.599.409 1.882-1.204 1.254-1.948 2.956-1.948 5.139 0 5.592 3.532 7.455 10.004 7.455s10.004-1.863 10.004-7.455c0-2.26-.703-3.956-1.852-5.187zm-8.272 11.657c-3.807 0-6.899-.712-6.899-4.497 0-1.444.738-2.26 1.269-2.769 1.167-1.119 3.014-.568 5.631-.568 1.189 0 2.335-.155 3.338-.166.602-.006 1.158.047 1.647.213 1.304.442 2.137 1.717 2.137 3.148-.002 3.964-2.001 4.639-7.123 4.639z"/><ellipse cx="15.999" cy="15.5" rx="1" ry="1.5"/><ellipse cx="7.999" cy="15.5" rx="1" ry="1.5"/></svg>