<?xml version="1.0" encoding="utf-8"?>
<!-- Generator: Adobe Illustrator 27.2.0, SVG Export Plug-In . SVG Version: 6.00 Build 0)  -->
<svg version="1.1" id="Layer_1" xmlns="http://www.w3.org/2000/svg" xmlns:xlink="http://www.w3.org/1999/xlink" x="0px" y="0px"
	 viewBox="0 0 96 96" style="enable-background:new 0 0 96 96;" xml:space="preserve">
<style type="text/css">
	.st0{fill:#2D333B;}
</style>
<path class="st0" d="M80.6,33.4c1.1-3.4,2.4-9.9-0.8-17.4c-9.6,0-17.5,7.4-17.8,7.6c-4.5-1-9.2-1.4-14-1.4c-4.9,0-9.8,0.6-14.3,1.7
	C27.3,17.6,19.6,16,16.3,16c0,0-2.1,3.7-2.1,10c0,4.2,0.9,6.4,1.6,7.5C11,38.6,8,45.4,8,54.1c0,22.4,14.1,29.8,40,29.8
	s40-7.5,40-29.8C88,45.1,85.2,38.3,80.6,33.4z M47.5,80c-15.2,0-27.6-2.8-27.6-18c0-5.8,3-9,5.1-11.1c4.7-4.5,12.1-2.3,22.5-2.3
	c4.8,0,9.3-0.6,13.4-0.7c2.4,0,4.6,0.2,6.6,0.9c5.2,1.8,8.5,6.9,8.5,12.6C76,77.3,68,80,47.5,80z"/>
<ellipse class="st0" cx="64" cy="62" rx="4" ry="6"/>
<ellipse class="st0" cx="32" cy="62" rx="4" ry="6"/>
</svg>
