<svg enable-background="new 0 0 112.7 112.8" viewBox="0 0 112.7 112.8" xmlns="http://www.w3.org/2000/svg"><g fill="#e02a80"><path d="m235.5 54.4c-6.4-1.1-20-3.1-39.1-3.1s-32.7 1.9-39.1 3.1c-2.4.4-4 2.6-3.8 5.2 1.7 24 20.5 42.8 42.9 42.8s41.2-18.8 42.9-42.8c.2-2.5-1.4-4.8-3.8-5.2z"/><path d="m196.4 0c-31.1 0-56.4 25.3-56.4 56.4s25.3 56.4 56.4 56.4 56.4-25.3 56.4-56.4-25.3-56.4-56.4-56.4zm0 107.4c-28.2 0-51-22.8-51-51 0-9.3 2.5-18.1 6.9-25.6 10.8-2.9 20.8-7.6 25.4-10-2.4 2.6-5.7 6.8-5.1 9 .1.5.5 1.2 1.6 1.4.3.1.5.1.8.1 5.1 0 17.4-8.2 21.6-11-.9 2.4-2.3 7-.7 9.4.7 1 1.7 1.6 3.2 1.6h.1c6.2 0 12.6-9.2 14.2-11.6 2.1 2 11.8 10 27.3 11.4 4.2 7.4 6.7 16.1 6.7 25.2.1 28.3-22.8 51.1-51 51.1z"/><path d="m192.2 47.2c-.4-.1-.7-.9-.2-2.2.2-.6.7-1.4 1.5-2s1.9-1 3-1 2.2.3 3 1c.8.6 1.3 1.3 1.5 2 .5 1.3.2 2.1-.2 2.2s-.9-.4-1.6-1-1.5-1-2.6-1-1.9.4-2.6 1c-.9.6-1.4 1.1-1.8 1z"/><path d="m161.8 41.9c-.4-.4-.2-1.5 1-3 .6-.7 1.6-1.6 2.8-2.1 1.2-.6 2.7-.9 4.2-.9s3 .3 4.2.9 2.2 1.4 2.8 2.1c1.2 1.5 1.4 2.6 1 3s-1.5-.1-2.9-.8-3-1.1-5.2-1.1-3.8.5-5.2 1.1c-1.1.7-2.3 1.2-2.7.8z"/><path d="m214.4 41.9c-.4-.4-.2-1.5 1-3 .6-.7 1.6-1.6 2.8-2.1 1.2-.6 2.7-.9 4.2-.9s3 .3 4.2.9 2.2 1.4 2.8 2.1c1.2 1.5 1.4 2.6 1 3s-1.5-.1-2.9-.8-3-1.1-5.2-1.1-3.8.5-5.2 1.1c-1.2.7-2.3 1.2-2.7.8z"/></g><path d="m182.4 92.1c-2.7.2-5.3-.2-6.6-.3-1.3-.2-2.5-.6-3.7-1.2-1-.6-5.4-3.7-6.1-5-1-1.8-2-3.8-1.2-5.9.3-.8.6-1.6 1.2-2.2 2.4-2.6 5.2-2.5 7.8-.4 1.2.9 2.4 1.8 3.6 2.7 1 .6 2.1 1 3.2 1.1 1.2.1 2.2-.3 2.9-1.4.5-.8.2-1.7-.6-2.1-1.5-.7-3.1-.8-4.7-1.1-1.2-.3-2.4-.6-3.5-.9-2.8-.8-5.7-2-6.9-4.9-.5-1.2-.5-2.5-.5-3.8 0-2.6 1-5 2.6-6.9 4.3-5.1 11.6-5.8 17.8-5.3 3.8.2 8.8 2.4 8.3 7-.4 4-4.4 6.4-8.1 5-1.5-.5-3-1.1-4.6-1.4-.7-.1-1.2.1-1.8.3-.4.2-.8.8-.7 1.2.1.5.5.9 1 1 2.3.6 4.7.9 7.1 1.5 1.9.5 3.7 1.4 5.2 2.8 3.9 3.8 4.3 9.9 1.1 14.3-1.8 2.6-6.5 5-10.1 5.8-.9-.1-1.8.1-2.7.1" fill="#fff"/><path d="m198.4 77.7c0-5.2.1-6.4.6-9.5.2-2 .7-4 1.4-5.9.3-.9.7-1.8 1.1-2.7.6-1.3 1.5-2.3 2.6-3.1 4-2.9 10.7-3.1 15.3-1.5 2.9.9 5.5 2.9 6.3 6 .2.8.5 1.7.5 2.6.1 1.8-.5 3.6-1.3 5.3-.2.5-.6 1-.9 1.5s-.4.7.1 1.1c2.7 2.2 4.6 5.5 4.1 9-.4 2.7-1.5 5-3.4 7-1.2 1.2-2.6 2.2-4.1 2.8-2.9 1.4-6.2 2.1-9.4 2.2-1.7 0-3.5 0-5.2-.5-1.1-.3-3.9-1.2-5.5-2.9s-2.2-6.2-2.2-11.4zm17.4-12c.1-.8-.3-1.4-1-1.8-1.2-.7-2.4-.6-3.5 0-.3.1-.6.5-.8.8-.5.9-1.4 3.1-.4 4.1s3 .3 3.7 0c1.3-.5 2-1.7 2-3.1zm-4.2 16.4c1 0 2-.3 2.9-.8 1.7-.9 1.9-2.9-.2-3.6-1-.3-2.1-.2-3.1 0-.5.1-1 .4-1.2 1-.4 1.6-.6 3.6 1.6 3.4z" fill="#fff"/><path d="m52.1 47.2c-.4-.1-.7-.9-.2-2.2.2-.6.7-1.4 1.5-2s1.9-1 3-1 2.2.3 3 1c.8.6 1.3 1.3 1.5 2 .5 1.3.2 2.1-.2 2.2s-.9-.4-1.6-1-1.5-1-2.6-1-1.9.4-2.6 1c-.9.6-1.4 1.1-1.8 1z" fill="#e02a80"/><path d="m31.9 35.9c-.5-.6-3.4-.9-6.5.5-1.7.8-3.1 2-3.8 3.1-.3.5-.5 1-.6 1.4s0 .6.2.7.4 0 .7-.1c.3-.2.7-.4 1.1-.7.6-.4 1.4-.9 2.3-1.4-.3.7-.4 1.4-.4 2.2 0 3.2 2.6 5.8 5.8 5.8s5.8-2.6 5.8-5.8c0-2.8-2-5.2-4.6-5.7z" fill="#e02a80"/><path d="m95.4 54.4c-6.4-1.1-20-3.1-39.1-3.1s-32.7 1.9-39.1 3.1c-2.4.4-4 2.6-3.8 5.2 1.7 24 20.5 42.8 42.9 42.8s41.2-18.8 42.9-42.8c.2-2.5-1.4-4.8-3.8-5.2z" fill="#e02a80"/><path d="m56.3 0c-31.1 0-56.4 25.3-56.4 56.4s25.3 56.4 56.4 56.4 56.4-25.3 56.4-56.4-25.3-56.4-56.4-56.4zm0 107.4c-28.2 0-51-22.8-51-51 0-9.3 2.5-18.1 6.9-25.6 10.8-2.9 20.8-7.6 25.4-10-2.4 2.6-5.7 6.8-5.1 9 .1.5.5 1.2 1.6 1.4.3.1.5.1.8.1 5.1 0 17.4-8.2 21.6-11-.9 2.4-2.3 7-.7 9.4.7 1 1.7 1.6 3.2 1.6h.1c6.2 0 12.6-9.2 14.2-11.6 2.1 2 11.8 10 27.3 11.4 4.2 7.4 6.7 16.1 6.7 25.2.1 28.3-22.8 51.1-51 51.1z" fill="#e02a80"/><path d="m83.1 35.9c-.5-.6-3.4-.9-6.5.5-1.7.8-3.1 2-3.8 3.1-.3.5-.5 1-.6 1.4s0 .6.2.7.4 0 .7-.1c.3-.2.7-.4 1.1-.7.6-.4 1.4-.9 2.3-1.4-.3.7-.4 1.4-.4 2.2 0 3.2 2.6 5.8 5.8 5.8s5.8-2.6 5.8-5.8c.1-2.8-1.9-5.2-4.6-5.7z" fill="#e02a80"/><path d="m42.3 92.1c-2.7.2-5.3-.2-6.6-.3-1.3-.2-2.5-.6-3.7-1.2-1-.6-5.4-3.7-6.1-5-1-1.8-2-3.8-1.2-5.9.3-.8.6-1.6 1.2-2.2 2.4-2.6 5.2-2.5 7.8-.4l3.6 2.7c1 .6 2.1 1 3.2 1.1 1.2.1 2.2-.3 2.9-1.4.5-.8.2-1.7-.6-2.1-1.5-.7-3.1-.8-4.7-1.1-1.2-.3-2.4-.6-3.5-.9-2.8-.8-5.7-2-6.9-4.9-.5-1.2-.5-2.5-.5-3.8 0-2.6 1-5 2.6-6.9 4.3-5.1 11.6-5.8 17.8-5.3 3.8.2 8.8 2.4 8.3 7-.4 4-4.4 6.4-8.1 5-1.5-.5-3-1.1-4.6-1.4-.7-.1-1.2.1-1.8.3-.4.2-.8.8-.7 1.2.1.5.5.9 1 1 2.3.6 4.7.9 7.1 1.5 1.9.5 3.7 1.4 5.2 2.8 3.9 3.8 4.3 9.9 1.1 14.3-1.8 2.6-6.5 5-10.1 5.8-.9-.1-1.8.1-2.7.1" fill="#fff"/><path d="m58.3 77.7c0-5.2.1-6.4.6-9.5.2-2 .7-4 1.4-5.9.3-.9.7-1.8 1.1-2.7.6-1.3 1.5-2.3 2.6-3.1 4-2.9 10.7-3.1 15.3-1.5 2.9.9 5.5 2.9 6.3 6 .2.8.5 1.7.5 2.6.1 1.8-.5 3.6-1.3 5.3-.2.5-.6 1-.9 1.5s-.4.7.1 1.1c2.7 2.2 4.6 5.5 4.1 9-.4 2.7-1.5 5-3.4 7-1.2 1.2-2.6 2.2-4.1 2.8-2.9 1.4-6.2 2.1-9.4 2.2-1.7 0-3.5 0-5.2-.5-1.1-.3-3.9-1.2-5.5-2.9s-2.2-6.2-2.2-11.4zm17.4-12c.1-.8-.3-1.4-1-1.8-1.2-.7-2.4-.6-3.5 0-.3.1-.6.5-.8.8-.4.8-1.4 3-.4 4s3 .3 3.7 0c1.3-.4 2-1.6 2-3zm-4.2 16.4c1 0 2-.3 2.9-.8 1.7-.9 1.9-2.9-.2-3.6-1-.3-2.1-.2-3.1 0-.5.1-1 .4-1.2 1-.4 1.6-.6 3.6 1.6 3.4z" fill="#fff"/></svg>